<?xml version="1.0" encoding="UTF-8" standalone="no"?>
<!DOCTYPE svg PUBLIC "-//W3C//DTD SVG 1.1//EN" "http://www.w3.org/Graphics/SVG/1.1/DTD/svg11.dtd">
<!-- Generated by Microsoft Visio, SVG Export time-sync-comm-time.svg Page-1 -->
<svg xmlns="http://www.w3.org/2000/svg" xmlns:xlink="http://www.w3.org/1999/xlink" xmlns:ev="http://www.w3.org/2001/xml-events"
		xmlns:v="http://schemas.microsoft.com/visio/2003/SVGExtensions/" width="6.63889in" height="3.3238in"
		viewBox="0 0 478 239.314" xml:space="preserve" color-interpolation-filters="sRGB" class="st10">
	<v:documentProperties v:langID="1033" v:viewMarkup="false"/>

	<style type="text/css">
	<![CDATA[
		.st1 {fill:#4672c4;stroke:#c7c8c8;stroke-width:0.25}
		.st2 {fill:#feffff;font-family:Calibri;font-size:0.833336em}
		.st3 {marker-end:url(#mrkr4-30);stroke:#4672c4;stroke-linecap:round;stroke-linejoin:round;stroke-width:1}
		.st4 {fill:#4672c4;fill-opacity:1;stroke:#4672c4;stroke-opacity:1;stroke-width:0.28409090909091}
		.st5 {stroke:#4672c4;stroke-linecap:round;stroke-linejoin:round;stroke-width:1}
		.st6 {fill:none;stroke:none;stroke-width:0.25}
		.st7 {fill:#4672c4;font-family:Calibri;font-size:1.00001em}
		.st8 {fill:#ed7d31;stroke:#c7c8c8;stroke-width:0.25}
		.st9 {fill:#feffff;font-family:Calibri;font-size:1.00001em}
		.st10 {fill:none;fill-rule:evenodd;font-size:12px;overflow:visible;stroke-linecap:square;stroke-miterlimit:3}
	]]>
	</style>

	<defs id="Markers">
		<g id="lend4">
			<path d="M 2 1 L 0 0 L 2 -1 L 2 1 " style="stroke:none"/>
		</g>
		<marker id="mrkr4-30" class="st4" v:arrowType="4" v:arrowSize="2" v:setback="7.04" refX="-7.04" orient="auto"
				markerUnits="strokeWidth" overflow="visible">
			<use xlink:href="#lend4" transform="scale(-3.52,-3.52) "/>
		</marker>
	</defs>
	<g v:mID="0" v:index="1" v:groupContext="foregroundPage">
		<title>Page-1</title>
		<v:pageProperties v:drawingScale="1" v:pageScale="1" v:drawingUnits="0" v:shadowOffsetX="9" v:shadowOffsetY="-9"/>
		<v:layer v:name="Connector" v:index="0"/>
		<g id="shape1-1" v:mID="1" v:groupContext="shape" transform="translate(245.698,-189.459)">
			<title>Circle</title>
			<desc>A</desc>
			<v:userDefs>
				<v:ud v:nameU="visVersion" v:val="VT0(15):26"/>
			</v:userDefs>
			<v:textBlock v:margins="rect(4,4,4,4)"/>
			<v:textRect cx="24.8023" cy="214.512" width="43.41" height="37.2035"/>
			<path d="M0 214.51 A24.8023 24.8023 0 0 1 49.6 214.51 A24.8023 24.8023 0 1 1 0 214.51 Z" class="st1"/>
			<text x="21.91" y="217.51" class="st2" v:langID="1033"><v:paragraph v:horizAlign="1"/><v:tabList/>A</text>		</g>
		<g id="shape2-4" v:mID="2" v:groupContext="shape" transform="translate(143.297,-94.8547)">
			<title>Circle.2</title>
			<desc>B1</desc>
			<v:userDefs>
				<v:ud v:nameU="visVersion" v:val="VT0(15):26"/>
			</v:userDefs>
			<v:textBlock v:margins="rect(4,4,4,4)"/>
			<v:textRect cx="24.8023" cy="214.512" width="43.41" height="37.2035"/>
			<path d="M0 214.51 A24.8023 24.8023 0 0 1 49.6 214.51 A24.8023 24.8023 0 1 1 0 214.51 Z" class="st1"/>
			<text x="19.55" y="217.51" class="st2" v:langID="1033"><v:paragraph v:horizAlign="1"/><v:tabList/>B1</text>		</g>
		<g id="shape3-7" v:mID="3" v:groupContext="shape" transform="translate(245.698,-94.8547)">
			<title>Circle.3</title>
			<desc>B2</desc>
			<v:userDefs>
				<v:ud v:nameU="visVersion" v:val="VT0(15):26"/>
			</v:userDefs>
			<v:textBlock v:margins="rect(4,4,4,4)"/>
			<v:textRect cx="24.8023" cy="214.512" width="43.41" height="37.2035"/>
			<path d="M0 214.51 A24.8023 24.8023 0 0 1 49.6 214.51 A24.8023 24.8023 0 1 1 0 214.51 Z" class="st1"/>
			<text x="19.55" y="217.51" class="st2" v:langID="1033"><v:paragraph v:horizAlign="1"/><v:tabList/>B2</text>		</g>
		<g id="shape4-10" v:mID="4" v:groupContext="shape" transform="translate(353.698,-94.8547)">
			<title>Circle.4</title>
			<desc>B3</desc>
			<v:userDefs>
				<v:ud v:nameU="visVersion" v:val="VT0(15):26"/>
			</v:userDefs>
			<v:textBlock v:margins="rect(4,4,4,4)"/>
			<v:textRect cx="24.8023" cy="214.512" width="43.41" height="37.2035"/>
			<path d="M0 214.51 A24.8023 24.8023 0 0 1 49.6 214.51 A24.8023 24.8023 0 1 1 0 214.51 Z" class="st1"/>
			<text x="19.55" y="217.51" class="st2" v:langID="1033"><v:paragraph v:horizAlign="1"/><v:tabList/>B3</text>		</g>
		<g id="shape5-13" v:mID="5" v:groupContext="shape" transform="translate(78.0988,-0.25)">
			<title>Circle.5</title>
			<desc>C12</desc>
			<v:userDefs>
				<v:ud v:nameU="visVersion" v:val="VT0(15):26"/>
			</v:userDefs>
			<v:textBlock v:margins="rect(4,4,4,4)"/>
			<v:textRect cx="24.8023" cy="214.512" width="43.41" height="37.2035"/>
			<path d="M0 214.51 A24.8023 24.8023 0 0 1 49.6 214.51 A24.8023 24.8023 0 1 1 0 214.51 Z" class="st1"/>
			<text x="17.07" y="217.51" class="st2" v:langID="1033"><v:paragraph v:horizAlign="1"/><v:tabList/>C12</text>		</g>
		<g id="shape6-16" v:mID="6" v:groupContext="shape" transform="translate(209.698,-0.25)">
			<title>Circle.6</title>
			<desc>C21</desc>
			<v:userDefs>
				<v:ud v:nameU="visVersion" v:val="VT0(15):26"/>
			</v:userDefs>
			<v:textBlock v:margins="rect(4,4,4,4)"/>
			<v:textRect cx="24.8023" cy="214.512" width="43.41" height="37.2035"/>
			<path d="M0 214.51 A24.8023 24.8023 0 0 1 49.6 214.51 A24.8023 24.8023 0 1 1 0 214.51 Z" class="st1"/>
			<text x="17.07" y="217.51" class="st2" v:langID="1033"><v:paragraph v:horizAlign="1"/><v:tabList/>C21</text>		</g>
		<g id="shape7-19" v:mID="7" v:groupContext="shape" transform="translate(288.5,-0.25)">
			<title>Circle.7</title>
			<desc>C22</desc>
			<v:userDefs>
				<v:ud v:nameU="visVersion" v:val="VT0(15):26"/>
			</v:userDefs>
			<v:textBlock v:margins="rect(4,4,4,4)"/>
			<v:textRect cx="24.8023" cy="214.512" width="43.41" height="37.2035"/>
			<path d="M0 214.51 A24.8023 24.8023 0 0 1 49.6 214.51 A24.8023 24.8023 0 1 1 0 214.51 Z" class="st1"/>
			<text x="17.07" y="217.51" class="st2" v:langID="1033"><v:paragraph v:horizAlign="1"/><v:tabList/>C22</text>		</g>
		<g id="shape8-22" v:mID="8" v:groupContext="shape" transform="translate(418.895,-0.25)">
			<title>Circle.8</title>
			<desc>C32</desc>
			<v:userDefs>
				<v:ud v:nameU="visVersion" v:val="VT0(15):26"/>
			</v:userDefs>
			<v:textBlock v:margins="rect(4,4,4,4)"/>
			<v:textRect cx="24.8023" cy="214.512" width="43.41" height="37.2035"/>
			<path d="M0 214.51 A24.8023 24.8023 0 0 1 49.6 214.51 A24.8023 24.8023 0 1 1 0 214.51 Z" class="st1"/>
			<text x="17.07" y="217.51" class="st2" v:langID="1033"><v:paragraph v:horizAlign="1"/><v:tabList/>C32</text>		</g>
		<g id="shape9-25" v:mID="9" v:groupContext="shape" v:layerMember="0" transform="translate(252.282,-197.431)">
			<title>Dynamic connector</title>
			<path d="M0 239.31 L-60.79 295.48" class="st3"/>
		</g>
		<g id="shape10-31" v:mID="10" v:groupContext="shape" v:layerMember="0" transform="translate(261.5,-189.459)">
			<title>Dynamic connector.10</title>
			<path d="M9 239.31 L9 277.27" class="st3"/>
		</g>
		<g id="shape11-36" v:mID="11" v:groupContext="shape" v:layerMember="0" transform="translate(289.157,-197.919)">
			<title>Dynamic connector.11</title>
			<path d="M0 239.31 L65.39 296.59" class="st3"/>
		</g>
		<g id="shape12-41" v:mID="12" v:groupContext="shape" v:layerMember="0" transform="translate(392.574,-99.2347)">
			<title>Dynamic connector.12</title>
			<path d="M0 239.31 L33.05 287.28" class="st3"/>
		</g>
		<g id="shape13-46" v:mID="13" v:groupContext="shape" v:layerMember="0" transform="translate(280.724,-97.0598)">
			<title>Dynamic connector.13</title>
			<path d="M0 239.31 L19.45 282.31" class="st3"/>
		</g>
		<g id="shape14-51" v:mID="14" v:groupContext="shape" v:layerMember="0" transform="translate(261.679,-96.4763)">
			<title>Dynamic connector.14</title>
			<path d="M0 239.31 L-15.85 280.98" class="st3"/>
		</g>
		<g id="shape15-56" v:mID="15" v:groupContext="shape" v:layerMember="0" transform="translate(154.025,-99.2347)">
			<title>Dynamic connector.15</title>
			<path d="M0 239.31 L-33.05 287.28" class="st3"/>
		</g>
		<g id="shape16-61" v:mID="16" v:groupContext="shape" transform="translate(143.297,-0.25)">
			<title>Circle.16</title>
			<desc>C12</desc>
			<v:userDefs>
				<v:ud v:nameU="visVersion" v:val="VT0(15):26"/>
			</v:userDefs>
			<v:textBlock v:margins="rect(4,4,4,4)"/>
			<v:textRect cx="24.8023" cy="214.512" width="43.41" height="37.2035"/>
			<path d="M0 214.51 A24.8023 24.8023 0 0 1 49.6 214.51 A24.8023 24.8023 0 1 1 0 214.51 Z" class="st1"/>
			<text x="17.07" y="217.51" class="st2" v:langID="1033"><v:paragraph v:horizAlign="1"/><v:tabList/>C12</text>		</g>
		<g id="shape17-64" v:mID="17" v:groupContext="shape" transform="translate(353.698,-0.25)">
			<title>Circle.17</title>
			<desc>C31</desc>
			<v:userDefs>
				<v:ud v:nameU="visVersion" v:val="VT0(15):26"/>
			</v:userDefs>
			<v:textBlock v:margins="rect(4,4,4,4)"/>
			<v:textRect cx="24.8023" cy="214.512" width="43.41" height="37.2035"/>
			<path d="M0 214.51 A24.8023 24.8023 0 0 1 49.6 214.51 A24.8023 24.8023 0 1 1 0 214.51 Z" class="st1"/>
			<text x="17.07" y="217.51" class="st2" v:langID="1033"><v:paragraph v:horizAlign="1"/><v:tabList/>C31</text>		</g>
		<g id="shape19-67" v:mID="19" v:groupContext="shape" v:layerMember="0" transform="translate(387.5,-94.8547)">
			<title>Dynamic connector.19</title>
			<path d="M-9 239.31 L-9 277.27" class="st3"/>
		</g>
		<g id="shape20-72" v:mID="20" v:groupContext="shape" v:layerMember="0" transform="translate(177.099,-94.8547)">
			<title>Dynamic connector.20</title>
			<path d="M-9 239.31 L-9 277.27" class="st3"/>
		</g>
		<g id="shape21-77" v:mID="21" v:groupContext="shape" transform="translate(0.5,-171.459)">
			<title>Sheet.21</title>
			<path d="M0 239.31 L477 239.31" class="st5"/>
		</g>
		<g id="shape22-80" v:mID="22" v:groupContext="shape" transform="translate(0.5,-76.6453)">
			<title>Sheet.22</title>
			<path d="M0 239.31 L477 239.31" class="st5"/>
		</g>
		<g id="shape23-83" v:mID="23" v:groupContext="shape" transform="translate(0.5,-204.262)">
			<title>Sheet.23</title>
			<desc>Level 1</desc>
			<v:textBlock v:margins="rect(4,4,4,4)"/>
			<v:textRect cx="56.25" cy="229.314" width="112.51" height="20"/>
			<rect x="0" y="219.314" width="112.5" height="20" class="st6"/>
			<text x="4" y="232.91" class="st7" v:langID="1033"><v:paragraph/><v:tabList/>Level 1</text>		</g>
		<g id="shape24-86" v:mID="24" v:groupContext="shape" transform="translate(0.5,-109.657)">
			<title>Sheet.24</title>
			<desc>Level 2</desc>
			<v:textBlock v:margins="rect(4,4,4,4)"/>
			<v:textRect cx="56.25" cy="229.314" width="112.51" height="20"/>
			<rect x="0" y="219.314" width="112.5" height="20" class="st6"/>
			<text x="4" y="232.91" class="st7" v:langID="1033"><v:paragraph/><v:tabList/>Level 2</text>		</g>
		<g id="shape25-89" v:mID="25" v:groupContext="shape" transform="translate(0.5,-15.0523)">
			<title>Sheet.25</title>
			<desc>Level 3</desc>
			<v:textBlock v:margins="rect(4,4,4,4)"/>
			<v:textRect cx="56.25" cy="229.314" width="112.51" height="20"/>
			<rect x="0" y="219.314" width="112.5" height="20" class="st6"/>
			<text x="4" y="232.91" class="st7" v:langID="1033"><v:paragraph/><v:tabList/>Level 3</text>		</g>
		<g id="shape26-92" v:mID="26" v:groupContext="shape" transform="translate(282.221,-170.459)">
			<title>Sheet.26</title>
			<desc>T1</desc>
			<v:textBlock v:margins="rect(4,4,4,4)"/>
			<v:textRect cx="10.5469" cy="229.314" width="21.1" height="20"/>
			<rect x="0" y="219.314" width="21.0938" height="20" class="st8"/>
			<text x="4.58" y="232.91" class="st9" v:langID="1033"><v:paragraph v:horizAlign="1"/><v:tabList/>T1</text>		</g>
		<g id="shape27-95" v:mID="27" v:groupContext="shape" transform="translate(331.953,-116.459)">
			<title>Sheet.27</title>
			<desc>T2</desc>
			<v:textBlock v:margins="rect(4,4,4,4)"/>
			<v:textRect cx="10.5469" cy="229.314" width="21.1" height="20"/>
			<rect x="0" y="219.314" width="21.0938" height="20" class="st8"/>
			<text x="4.58" y="232.91" class="st9" v:langID="1033"><v:paragraph v:horizAlign="1"/><v:tabList/>T2</text>		</g>
		<g id="shape28-98" v:mID="28" v:groupContext="shape" v:layerMember="0" transform="translate(378.5,-144.459)">
			<title>Dynamic connector.28</title>
			<path d="M0 239.31 L-77.8 174.04" class="st3"/>
		</g>
		<g id="shape29-103" v:mID="29" v:groupContext="shape" transform="translate(382.209,-146.971)">
			<title>Sheet.29</title>
			<desc>T3</desc>
			<v:textBlock v:margins="rect(4,4,4,4)"/>
			<v:textRect cx="10.5469" cy="229.314" width="21.1" height="20"/>
			<rect x="0" y="219.314" width="21.0938" height="20" class="st8"/>
			<text x="4.58" y="232.91" class="st9" v:langID="1033"><v:paragraph v:horizAlign="1"/><v:tabList/>T3</text>		</g>
		<g id="shape30-106" v:mID="30" v:groupContext="shape" transform="translate(306.5,-203.064)">
			<title>Sheet.30</title>
			<desc>T4</desc>
			<v:textBlock v:margins="rect(4,4,4,4)"/>
			<v:textRect cx="10.5469" cy="229.314" width="21.1" height="20"/>
			<rect x="0" y="219.314" width="21.0938" height="20" class="st8"/>
			<text x="4.58" y="232.91" class="st9" v:langID="1033"><v:paragraph v:horizAlign="1"/><v:tabList/>T4</text>		</g>
	</g>
</svg>
