<?xml version="1.0" encoding="UTF-8" standalone="no"?>
<!DOCTYPE svg PUBLIC "-//W3C//DTD SVG 1.1//EN" "http://www.w3.org/Graphics/SVG/1.1/DTD/svg11.dtd">
<!-- Generated by Microsoft Visio, SVG Export time-sync-budget.svg Page-1 -->
<svg xmlns="http://www.w3.org/2000/svg" xmlns:xlink="http://www.w3.org/1999/xlink" xmlns:ev="http://www.w3.org/2001/xml-events"
		xmlns:v="http://schemas.microsoft.com/visio/2003/SVGExtensions/" width="6.63889in" height="3.41756in"
		viewBox="0 0 478 246.064" xml:space="preserve" color-interpolation-filters="sRGB" class="st10">
	<v:documentProperties v:langID="1033" v:viewMarkup="false"/>

	<style type="text/css">
	<![CDATA[
		.st1 {fill:#4672c4;stroke:#c7c8c8;stroke-width:0.25}
		.st2 {fill:#feffff;font-family:Calibri;font-size:0.833336em}
		.st3 {marker-end:url(#mrkr4-30);stroke:#4672c4;stroke-linecap:round;stroke-linejoin:round;stroke-width:1}
		.st4 {fill:#4672c4;fill-opacity:1;stroke:#4672c4;stroke-opacity:1;stroke-width:0.28409090909091}
		.st5 {stroke:#4672c4;stroke-linecap:round;stroke-linejoin:round;stroke-width:1}
		.st6 {fill:none;stroke:none;stroke-width:0.25}
		.st7 {fill:#4672c4;font-family:Calibri;font-size:1.00001em}
		.st8 {fill:#70ad47;stroke:#c7c8c8;stroke-width:0.25}
		.st9 {fill:#ed7d31;stroke:#c7c8c8;stroke-width:0.25}
		.st10 {fill:none;fill-rule:evenodd;font-size:12px;overflow:visible;stroke-linecap:square;stroke-miterlimit:3}
	]]>
	</style>

	<defs id="Markers">
		<g id="lend4">
			<path d="M 2 1 L 0 0 L 2 -1 L 2 1 " style="stroke:none"/>
		</g>
		<marker id="mrkr4-30" class="st4" v:arrowType="4" v:arrowSize="2" v:setback="7.04" refX="-7.04" orient="auto"
				markerUnits="strokeWidth" overflow="visible">
			<use xlink:href="#lend4" transform="scale(-3.52,-3.52) "/>
		</marker>
	</defs>
	<g v:mID="0" v:index="1" v:groupContext="foregroundPage">
		<title>Page-1</title>
		<v:pageProperties v:drawingScale="1" v:pageScale="1" v:drawingUnits="0" v:shadowOffsetX="9" v:shadowOffsetY="-9"/>
		<v:layer v:name="Connector" v:index="0"/>
		<g id="shape35-1" v:mID="35" v:groupContext="shape" transform="translate(245.698,-189.459)">
			<title>Circle.35</title>
			<desc>A</desc>
			<v:userDefs>
				<v:ud v:nameU="visVersion" v:val="VT0(15):26"/>
			</v:userDefs>
			<v:textBlock v:margins="rect(4,4,4,4)"/>
			<v:textRect cx="24.8023" cy="221.262" width="43.41" height="37.2035"/>
			<path d="M0 221.26 A24.8023 24.8023 0 0 1 49.6 221.26 A24.8023 24.8023 0 1 1 0 221.26 Z" class="st1"/>
			<text x="21.91" y="224.26" class="st2" v:langID="1033"><v:paragraph v:horizAlign="1"/><v:tabList/>A</text>		</g>
		<g id="shape36-4" v:mID="36" v:groupContext="shape" transform="translate(133.355,-94.8547)">
			<title>Circle.36</title>
			<desc>B1</desc>
			<v:userDefs>
				<v:ud v:nameU="visVersion" v:val="VT0(15):26"/>
			</v:userDefs>
			<v:textBlock v:margins="rect(4,4,4,4)"/>
			<v:textRect cx="24.8023" cy="221.262" width="43.41" height="37.2035"/>
			<path d="M0 221.26 A24.8023 24.8023 0 0 1 49.6 221.26 A24.8023 24.8023 0 1 1 0 221.26 Z" class="st1"/>
			<text x="19.55" y="224.26" class="st2" v:langID="1033"><v:paragraph v:horizAlign="1"/><v:tabList/>B1</text>		</g>
		<g id="shape37-7" v:mID="37" v:groupContext="shape" transform="translate(239,-94.8547)">
			<title>Circle.37</title>
			<desc>B2</desc>
			<v:userDefs>
				<v:ud v:nameU="visVersion" v:val="VT0(15):26"/>
			</v:userDefs>
			<v:textBlock v:margins="rect(4,4,4,4)"/>
			<v:textRect cx="24.8023" cy="221.262" width="43.41" height="37.2035"/>
			<path d="M0 221.26 A24.8023 24.8023 0 0 1 49.6 221.26 A24.8023 24.8023 0 1 1 0 221.26 Z" class="st1"/>
			<text x="19.55" y="224.26" class="st2" v:langID="1033"><v:paragraph v:horizAlign="1"/><v:tabList/>B2</text>		</g>
		<g id="shape38-10" v:mID="38" v:groupContext="shape" transform="translate(360.657,-94.8547)">
			<title>Circle.38</title>
			<desc>B3</desc>
			<v:userDefs>
				<v:ud v:nameU="visVersion" v:val="VT0(15):26"/>
			</v:userDefs>
			<v:textBlock v:margins="rect(4,4,4,4)"/>
			<v:textRect cx="24.8023" cy="221.262" width="43.41" height="37.2035"/>
			<path d="M0 221.26 A24.8023 24.8023 0 0 1 49.6 221.26 A24.8023 24.8023 0 1 1 0 221.26 Z" class="st1"/>
			<text x="19.55" y="224.26" class="st2" v:langID="1033"><v:paragraph v:horizAlign="1"/><v:tabList/>B3</text>		</g>
		<g id="shape39-13" v:mID="39" v:groupContext="shape" transform="translate(77.1046,-0.25)">
			<title>Circle.39</title>
			<desc>C12</desc>
			<v:userDefs>
				<v:ud v:nameU="visVersion" v:val="VT0(15):26"/>
			</v:userDefs>
			<v:textBlock v:margins="rect(4,4,4,4)"/>
			<v:textRect cx="24.8023" cy="221.262" width="43.41" height="37.2035"/>
			<path d="M0 221.26 A24.8023 24.8023 0 0 1 49.6 221.26 A24.8023 24.8023 0 1 1 0 221.26 Z" class="st1"/>
			<text x="17.07" y="224.26" class="st2" v:langID="1033"><v:paragraph v:horizAlign="1"/><v:tabList/>C12</text>		</g>
		<g id="shape40-16" v:mID="40" v:groupContext="shape" transform="translate(203,-0.25)">
			<title>Circle.40</title>
			<desc>C21</desc>
			<v:userDefs>
				<v:ud v:nameU="visVersion" v:val="VT0(15):26"/>
			</v:userDefs>
			<v:textBlock v:margins="rect(4,4,4,4)"/>
			<v:textRect cx="24.8023" cy="221.262" width="43.41" height="37.2035"/>
			<path d="M0 221.26 A24.8023 24.8023 0 0 1 49.6 221.26 A24.8023 24.8023 0 1 1 0 221.26 Z" class="st1"/>
			<text x="17.07" y="224.26" class="st2" v:langID="1033"><v:paragraph v:horizAlign="1"/><v:tabList/>C21</text>		</g>
		<g id="shape41-19" v:mID="41" v:groupContext="shape" transform="translate(259.302,-0.25)">
			<title>Circle.41</title>
			<desc>C22</desc>
			<v:userDefs>
				<v:ud v:nameU="visVersion" v:val="VT0(15):26"/>
			</v:userDefs>
			<v:textBlock v:margins="rect(4,4,4,4)"/>
			<v:textRect cx="24.8023" cy="221.262" width="43.41" height="37.2035"/>
			<path d="M0 221.26 A24.8023 24.8023 0 0 1 49.6 221.26 A24.8023 24.8023 0 1 1 0 221.26 Z" class="st1"/>
			<text x="17.07" y="224.26" class="st2" v:langID="1033"><v:paragraph v:horizAlign="1"/><v:tabList/>C22</text>		</g>
		<g id="shape42-22" v:mID="42" v:groupContext="shape" transform="translate(387.657,-0.25)">
			<title>Circle.42</title>
			<desc>C32</desc>
			<v:userDefs>
				<v:ud v:nameU="visVersion" v:val="VT0(15):26"/>
			</v:userDefs>
			<v:textBlock v:margins="rect(4,4,4,4)"/>
			<v:textRect cx="24.8023" cy="221.262" width="43.41" height="37.2035"/>
			<path d="M0 221.26 A24.8023 24.8023 0 0 1 49.6 221.26 A24.8023 24.8023 0 1 1 0 221.26 Z" class="st1"/>
			<text x="17.07" y="224.26" class="st2" v:langID="1033"><v:paragraph v:horizAlign="1"/><v:tabList/>C32</text>		</g>
		<g id="shape43-25" v:mID="43" v:groupContext="shape" v:layerMember="0" transform="translate(251.528,-198.286)">
			<title>Dynamic connector.43</title>
			<path d="M0 246.06 L-69.01 304.18" class="st3"/>
		</g>
		<g id="shape44-31" v:mID="44" v:groupContext="shape" v:layerMember="0" transform="translate(276.151,-189.521)">
			<title>Dynamic connector.44</title>
			<path d="M-7.4 246.06 L-10.1 284.17" class="st3"/>
		</g>
		<g id="shape45-36" v:mID="45" v:groupContext="shape" v:layerMember="0" transform="translate(289.651,-198.501)">
			<title>Dynamic connector.45</title>
			<path d="M0 246.06 L71.22 304.67" class="st3"/>
		</g>
		<g id="shape46-41" v:mID="46" v:groupContext="shape" v:layerMember="0" transform="translate(389.959,-95.807)">
			<title>Dynamic connector.46</title>
			<path d="M2.31 246.06 L13.76 286.2" class="st3"/>
		</g>
		<g id="shape47-46" v:mID="47" v:groupContext="shape" v:layerMember="0" transform="translate(264.953,-95.4068)">
			<title>Dynamic connector.47</title>
			<path d="M4.05 246.06 L12.47 285.28" class="st3"/>
		</g>
		<g id="shape48-51" v:mID="48" v:groupContext="shape" v:layerMember="0" transform="translate(254.981,-96.4763)">
			<title>Dynamic connector.48</title>
			<path d="M0 246.06 L-15.85 287.73" class="st3"/>
		</g>
		<g id="shape49-56" v:mID="49" v:groupContext="shape" v:layerMember="0" transform="translate(145.481,-98.3383)">
			<title>Dynamic connector.49</title>
			<path d="M0 246.06 L-27.3 291.98" class="st3"/>
		</g>
		<g id="shape50-61" v:mID="50" v:groupContext="shape" transform="translate(133.355,-0.25)">
			<title>Circle.50</title>
			<desc>C12</desc>
			<v:userDefs>
				<v:ud v:nameU="visVersion" v:val="VT0(15):26"/>
			</v:userDefs>
			<v:textBlock v:margins="rect(4,4,4,4)"/>
			<v:textRect cx="24.8023" cy="221.262" width="43.41" height="37.2035"/>
			<path d="M0 221.26 A24.8023 24.8023 0 0 1 49.6 221.26 A24.8023 24.8023 0 1 1 0 221.26 Z" class="st1"/>
			<text x="17.07" y="224.26" class="st2" v:langID="1033"><v:paragraph v:horizAlign="1"/><v:tabList/>C12</text>		</g>
		<g id="shape51-64" v:mID="51" v:groupContext="shape" transform="translate(331.198,-0.25)">
			<title>Circle.51</title>
			<desc>C31</desc>
			<v:userDefs>
				<v:ud v:nameU="visVersion" v:val="VT0(15):26"/>
			</v:userDefs>
			<v:textBlock v:margins="rect(4,4,4,4)"/>
			<v:textRect cx="24.8023" cy="221.262" width="43.41" height="37.2035"/>
			<path d="M0 221.26 A24.8023 24.8023 0 0 1 49.6 221.26 A24.8023 24.8023 0 1 1 0 221.26 Z" class="st1"/>
			<text x="17.07" y="224.26" class="st2" v:langID="1033"><v:paragraph v:horizAlign="1"/><v:tabList/>C31</text>		</g>
		<g id="shape52-67" v:mID="52" v:groupContext="shape" v:layerMember="0" transform="translate(379.73,-95.9762)">
			<title>Dynamic connector.52</title>
			<path d="M-1.64 246.06 L-14.26 286.59" class="st3"/>
		</g>
		<g id="shape53-72" v:mID="53" v:groupContext="shape" v:layerMember="0" transform="translate(167.157,-94.8547)">
			<title>Dynamic connector.53</title>
			<path d="M-9 246.06 L-9 284.02" class="st3"/>
		</g>
		<g id="shape54-77" v:mID="54" v:groupContext="shape" transform="translate(0.5,-171.459)">
			<title>Sheet.54</title>
			<path d="M0 246.06 L477 246.06" class="st5"/>
		</g>
		<g id="shape55-80" v:mID="55" v:groupContext="shape" transform="translate(0.5,-76.6453)">
			<title>Sheet.55</title>
			<path d="M0 246.06 L477 246.06" class="st5"/>
		</g>
		<g id="shape56-83" v:mID="56" v:groupContext="shape" transform="translate(9.65694,-204.262)">
			<title>Sheet.56</title>
			<desc>Level 1</desc>
			<v:textBlock v:margins="rect(4,4,4,4)"/>
			<v:textRect cx="56.25" cy="236.064" width="112.51" height="20"/>
			<rect x="0" y="226.064" width="112.5" height="20" class="st6"/>
			<text x="4" y="239.66" class="st7" v:langID="1033"><v:paragraph/><v:tabList/>Level 1</text>		</g>
		<g id="shape57-86" v:mID="57" v:groupContext="shape" transform="translate(9.65694,-109.657)">
			<title>Sheet.57</title>
			<desc>Level 2</desc>
			<v:textBlock v:margins="rect(4,4,4,4)"/>
			<v:textRect cx="56.25" cy="236.064" width="112.51" height="20"/>
			<rect x="0" y="226.064" width="112.5" height="20" class="st6"/>
			<text x="4" y="239.66" class="st7" v:langID="1033"><v:paragraph/><v:tabList/>Level 2</text>		</g>
		<g id="shape58-89" v:mID="58" v:groupContext="shape" transform="translate(9.65694,-15.0523)">
			<title>Sheet.58</title>
			<desc>Level 3</desc>
			<v:textBlock v:margins="rect(4,4,4,4)"/>
			<v:textRect cx="56.25" cy="236.064" width="112.51" height="20"/>
			<rect x="0" y="226.064" width="112.5" height="20" class="st6"/>
			<text x="4" y="239.66" class="st7" v:langID="1033"><v:paragraph/><v:tabList/>Level 3</text>		</g>
		<g id="shape64-92" v:mID="64" v:groupContext="shape" transform="translate(-45.157,245.814) rotate(-90)">
			<title>Rectangle.64</title>
			<desc>Budget</desc>
			<v:userDefs>
				<v:ud v:nameU="visVersion" v:val="VT0(15):26"/>
			</v:userDefs>
			<v:textBlock v:margins="rect(4,4,4,4)"/>
			<v:textRect cx="122.782" cy="238.189" width="245.57" height="15.75"/>
			<rect x="0" y="230.314" width="245.564" height="15.75" class="st8"/>
			<text x="108.29" y="241.19" class="st2" v:langID="1033"><v:paragraph v:horizAlign="1"/><v:tabList/>Budget</text>		</g>
		<g id="shape65-95" v:mID="65" v:groupContext="shape" transform="translate(80.843,245.814) rotate(-90)">
			<title>Rectangle.65</title>
			<desc>Budget</desc>
			<v:userDefs>
				<v:ud v:nameU="visVersion" v:val="VT0(15):26"/>
			</v:userDefs>
			<v:textBlock v:margins="rect(4,4,4,4)"/>
			<v:textRect cx="85.6046" cy="238.189" width="171.21" height="15.75"/>
			<rect x="0" y="230.314" width="171.209" height="15.75" class="st8"/>
			<text x="71.11" y="241.19" class="st2" v:langID="1033"><v:paragraph v:horizAlign="1"/><v:tabList/>Budget</text>		</g>
		<g id="shape66-98" v:mID="66" v:groupContext="shape" transform="translate(213.593,245.814) rotate(-90)">
			<title>Rectangle.66</title>
			<desc>Budget</desc>
			<v:userDefs>
				<v:ud v:nameU="visVersion" v:val="VT0(15):26"/>
			</v:userDefs>
			<v:textBlock v:margins="rect(4,4,4,4)"/>
			<v:textRect cx="38.3546" cy="238.189" width="76.71" height="15.75"/>
			<rect x="0" y="230.314" width="76.7093" height="15.75" class="st8"/>
			<text x="23.86" y="241.19" class="st2" v:langID="1033"><v:paragraph v:horizAlign="1"/><v:tabList/>Budget</text>		</g>
		<g id="shape68-101" v:mID="68" v:groupContext="shape" transform="translate(-27.314,74.9186) rotate(-90)">
			<title>Rectangle.68</title>
			<desc>Comms</desc>
			<v:userDefs>
				<v:ud v:nameU="visVersion" v:val="VT0(15):26"/>
			</v:userDefs>
			<v:textBlock v:margins="rect(4,4,4,4)"/>
			<v:textRect cx="37.3343" cy="238.189" width="74.67" height="15.75"/>
			<rect x="0" y="230.314" width="74.6686" height="15.75" class="st9"/>
			<text x="22.09" y="241.19" class="st2" v:langID="1033"><v:paragraph v:horizAlign="1"/><v:tabList/>Comms</text>		</g>
		<g id="shape70-104" v:mID="70" v:groupContext="shape" transform="translate(100.884,169.209) rotate(-90)">
			<title>Rectangle.70</title>
			<desc>Comms</desc>
			<v:userDefs>
				<v:ud v:nameU="visVersion" v:val="VT0(15):26"/>
			</v:userDefs>
			<v:textBlock v:margins="rect(4,4,4,4)"/>
			<v:textRect cx="47.3023" cy="238.189" width="94.61" height="15.75"/>
			<rect x="0" y="230.314" width="94.6046" height="15.75" class="st9"/>
			<text x="32.06" y="241.19" class="st2" v:langID="1033"><v:paragraph v:horizAlign="1"/><v:tabList/>Comms</text>		</g>
	</g>
</svg>
